<svg width="41" height="41" viewBox="0 0 41 41" fill="none" xmlns="http://www.w3.org/2000/svg">
<path fill-rule="evenodd" clip-rule="evenodd" d="M40.5188 3.56861C41.2765 2.62137 41.123 1.23918 40.1756 0.481387C39.2285 -0.276402 37.8462 -0.122825 37.0883 0.82441L26.7041 13.8049L22.55 10.6894C21.5796 9.96154 20.2028 10.1582 19.475 11.1287C18.7472 12.0991 18.9438 13.4758 19.9143 14.2037L25.7714 18.5965C26.7205 19.3083 28.0633 19.1378 28.8044 18.2115L40.5188 3.56861ZM37.7054 33.6786H25.7378L27.2021 37.3393H29.2857C30.2967 37.3393 31.1161 38.1587 31.1161 39.1696C31.1161 40.1806 30.2967 41 29.2857 41H11.7143C10.7034 41 9.88393 40.1806 9.88393 39.1696C9.88393 38.1587 10.7034 37.3393 11.7143 37.3393H13.7979L15.2622 33.6786H3.29464C1.47506 33.6786 0 32.2034 0 30.3839V8.41973C0 6.60015 1.47506 5.12509 3.29464 5.12509H14.2768C15.2877 5.12509 16.1071 5.94456 16.1071 6.95545C16.1071 7.96633 15.2877 8.7858 14.2768 8.7858H3.66071V30.0179H37.3393V19.4019C37.3393 18.391 38.1587 17.5715 39.1696 17.5715C40.1806 17.5715 41 18.391 41 19.4019V30.3839C41 32.2034 39.5249 33.6786 37.7054 33.6786Z" fill="#FCAE2D"/>
</svg>
