<svg width="39" height="45" viewBox="0 0 39 45" fill="none" xmlns="http://www.w3.org/2000/svg">
<path fill-rule="evenodd" clip-rule="evenodd" d="M0.0976562 5.71415C0.0976562 2.70124 2.22831 0.258789 4.85659 0.258789H10.7137C13.342 0.258789 15.4727 2.70124 15.4727 5.71415V39.2856C15.4727 42.2986 13.342 44.7409 10.7137 44.7409H4.85659C2.22831 44.7409 0.0976562 42.2986 0.0976562 39.2856V5.71415ZM4.85659 4.45522C4.25005 4.45522 3.75837 5.01885 3.75837 5.71415V39.2856C3.75837 39.9808 4.25005 40.5445 4.85659 40.5445H10.7137C11.3203 40.5445 11.8119 39.9808 11.8119 39.2856V5.71415C11.8119 5.01885 11.3203 4.45522 10.7137 4.45522H4.85659ZM17.6691 22.4999C17.6691 21.341 18.4886 20.4016 19.4994 20.4016H32.652L28.4553 15.5907C27.7404 14.7712 27.7404 13.4428 28.4553 12.6233C29.1699 11.8039 30.329 11.8039 31.0436 12.6233L38.365 21.0162C38.5407 21.2174 38.6731 21.4492 38.7624 21.6967C38.8497 21.9385 38.8989 22.2031 38.9012 22.4805V22.4999V22.5192C38.8968 23.0497 38.7182 23.5787 38.365 23.9835L31.0436 32.3764C30.329 33.1957 29.1699 33.1957 28.4553 32.3764C27.7404 31.557 27.7404 30.2285 28.4553 29.4091L32.652 24.5981H19.4994C18.4886 24.5981 17.6691 23.6587 17.6691 22.4999Z" fill="#FCAE2D"/>
</svg>
