<svg width="36" height="36" viewBox="0 0 36 36" fill="none" xmlns="http://www.w3.org/2000/svg">
<path fill-rule="evenodd" clip-rule="evenodd" d="M11.5527 9.85686V5.23826C11.817 5.05266 12.1831 4.82227 12.6507 4.58849C13.8004 4.01363 15.578 3.41044 17.9992 3.41044C20.4204 3.41044 22.1979 4.01363 23.3476 4.58849C23.8153 4.82227 24.1813 5.05266 24.4456 5.23826V9.85686C24.4456 13.4171 21.5594 16.3033 17.9992 16.3033C14.4389 16.3033 11.5527 13.4171 11.5527 9.85686ZM27.3415 3.22874L26.142 4.42829C27.3415 3.22874 27.342 3.22934 27.3415 3.22874L27.339 3.22627L27.3363 3.22356L27.3301 3.21737L27.3143 3.20206L27.2703 3.16021C27.2356 3.12747 27.1895 3.08526 27.1319 3.03497C27.0171 2.93443 26.8567 2.80138 26.6509 2.64704C26.2397 2.33856 25.6445 1.94358 24.865 1.55382C23.3004 0.77152 21.0065 0.0175781 17.9992 0.0175781C14.9918 0.0175781 12.6979 0.77152 11.1333 1.55382C10.3538 1.94358 9.7587 2.33856 9.34738 2.64704C9.14161 2.80138 8.98133 2.93443 8.86643 3.03497C8.80897 3.08526 8.76277 3.12747 8.72787 3.16021L8.6839 3.20206L8.66824 3.21737L8.66197 3.22356L8.65922 3.22627C8.65863 3.22687 8.65675 3.22874 9.85631 4.42829L8.65675 3.22874C8.33861 3.54688 8.15988 3.97837 8.15988 4.42829V9.85686C8.15988 15.2909 12.5651 19.6961 17.9992 19.6961C23.4333 19.6961 27.8384 15.2909 27.8384 9.85686V4.42829C27.8384 3.97837 27.6598 3.54688 27.3415 3.22874ZM0.142418 33.6324C3.0555 26.6469 9.9512 21.7319 17.9989 21.7319C26.0465 21.7319 32.9421 26.6469 35.8554 33.6324C36.0736 34.156 36.0158 34.7542 35.7012 35.2262C35.3866 35.6982 34.8568 35.9819 34.2895 35.9819H1.70815C1.14086 35.9819 0.611107 35.6982 0.2965 35.2262C-0.0181104 34.7542 -0.0759328 34.156 0.142418 33.6324Z" fill="#FCAE2D"/>
</svg>
